<svg xmlns="http://www.w3.org/2000/svg"  viewBox="0 0 48 48" width="1024px" height="1024px" baseProfile="basic"><linearGradient id="h92YKRkEnBR3oN6T0Avu3a" x1="7.717" x2="33.49" y1="11.281" y2="44.269" gradientUnits="userSpaceOnUse"><stop offset="0" stop-color="#0078d3"/><stop offset="1" stop-color="#0858a1"/></linearGradient><path fill="url(#h92YKRkEnBR3oN6T0Avu3a)" d="M36.224,27.737L17.09,8.603V6.001h-3.064C13.947,6.001,13,6.043,13,7.054v30.663	c0,0.638,0.524,1.064,1.077,1.065v0.01h3.007v-2.188l4.755-3.966l4.664,10.728c0.174,0.4,0.566,0.637,0.977,0.632v0h2.978v-1.204	l1.086-0.472c0.533-0.232,0.777-0.852,0.545-1.385l-4.628-10.647l8.1-0.726C36.468,29.484,36.868,28.381,36.224,27.737z"/><linearGradient id="h92YKRkEnBR3oN6T0Avu3b" x1="15.236" x2="24.428" y1="27.904" y2="24.776" gradientUnits="userSpaceOnUse"><stop offset=".022" stop-color="#87efff"/><stop offset="1" stop-color="#35c1f1"/></linearGradient><path fill="url(#h92YKRkEnBR3oN6T0Avu3b)" d="M16,7.054v30.663	c0,0.91,1.062,1.407,1.761,0.824l7.078-5.903l4.664,10.728c0.232,0.533,0.851,0.777,1.384,0.545l1.865-0.811L16.634,6.091	C16.276,6.246,16,6.593,16,7.054z"/><polygon fill="#35c1f1" points="18,35.737 25.608,29.392 30.959,41.699 32.877,40.866 27.521,28.546 36.408,27.75 18,9.343"/><path fill="#199be2" d="M35.089,40.938l-4.628-10.647l8.1-0.726c0.907-0.081,1.307-1.184,0.663-1.828L17.796,6.31	c-0.336-0.336-0.793-0.379-1.162-0.219l16.118,37.011l1.792-0.779C35.077,42.091,35.321,41.471,35.089,40.938z"/></svg>